<svg width="26" height="30" viewBox="0 0 26 30" fill="none" xmlns="http://www.w3.org/2000/svg">
<path d="M17.1111 18.3462C16.9277 18.2862 15.7681 17.7635 16.4927 15.5608H16.4823C18.3711 13.6154 19.8146 10.4851 19.8146 7.40313C19.8146 2.66428 16.6634 0.180054 13.0011 0.180054C9.33652 0.180054 6.20267 2.66313 6.20267 7.40313C6.20267 10.4977 7.63805 13.6408 9.53844 15.5816C10.2792 17.5247 8.95459 18.2458 8.67767 18.3474C4.84229 19.7343 0.342285 22.2624 0.342285 24.7581V25.6939C0.342285 29.0943 6.93536 29.8674 13.0369 29.8674C19.1477 29.8674 25.6577 29.0943 25.6577 25.6939V24.7581C25.6577 22.1874 21.1357 19.6789 17.1111 18.3462Z" fill="#FCB100"/>
</svg>
